<?xml version="1.0" standalone="no"?>
<!DOCTYPE svg PUBLIC "-//W3C//DTD SVG 20010904//EN"
 "http://www.w3.org/TR/2001/REC-SVG-20010904/DTD/svg10.dtd">
<svg version="1.0" xmlns="http://www.w3.org/2000/svg"
 width="64.000000pt" height="64.000000pt" viewBox="0 0 64.000000 64.000000"
 preserveAspectRatio="xMidYMid meet">

<g transform="translate(0.000000,64.000000) scale(0.100000,-0.100000)"
fill="#000000" stroke="none">
<path d="M252 557 c-39 -15 -87 -59 -108 -100 -11 -21 -15 -49 -12 -92 3 -57
8 -68 63 -145 33 -45 75 -99 92 -119 l33 -36 33 36 c17 20 59 74 91 119 51 70
60 90 64 135 6 68 -10 115 -53 156 -55 55 -131 72 -203 46z m156 -44 c47 -35
72 -81 72 -135 0 -27 -5 -59 -12 -71 -20 -38 -139 -192 -148 -192 -9 0 -128
154 -148 192 -16 30 -15 108 2 141 18 34 53 68 86 81 37 16 117 7 148 -16z"/>
<path d="M255 445 c-38 -37 -35 -95 6 -129 39 -33 79 -33 118 0 25 21 31 33
31 65 0 55 -34 89 -90 89 -30 0 -47 -6 -65 -25z m110 -21 c25 -25 16 -75 -17
-94 -25 -13 -31 -13 -55 0 -56 31 -36 110 27 110 16 0 36 -7 45 -16z"/>
</g>
</svg>
